<?xml version="1.0" encoding="iso-8859-1"?>
<!-- Generator: Adobe Illustrator 19.0.0, SVG Export Plug-In . SVG Version: 6.00 Build 0)  -->
<svg version="1.1" id="Layer_1" xmlns="http://www.w3.org/2000/svg" xmlns:xlink="http://www.w3.org/1999/xlink" x="0px" y="0px"
	 viewBox="0 0 512 512" style="enable-background:new 0 0 512 512;" xml:space="preserve">
<g>
	<g>
		<path d="M108.56,80.28l-17.2-34.944c-8.272-17.264-20.688-16.832-35.84-17.264H16c-8.832,0-16,7.168-16,16c0,8.832,7.168,16,16,16
			h40.384c2.192,0,4.752,0,6.608,0.048l16.864,34.272c2.784,5.664,8.464,8.944,14.368,8.944c2.368,0,4.768-0.528,7.04-1.632
			C109.2,97.8,112.464,88.216,108.56,80.28z"/>
	</g>
</g>
<g>
	<g>
		<path d="M480,76.072c-8.832,0-16,7.168-16,16v201.424c-0.128,1.664-1.712,4.88-3.104,6.576l-254.192,0.048
			c-1.632-0.4-5.456-3.648-6.72-6.576L108.912,81.032c-3.488-8.112-12.896-11.888-21.008-8.4c-8.128,3.472-11.888,12.88-8.4,21.008
			l91.088,212.544c5.424,12.56,19.744,25.888,35.632,25.888H463.52c19.52,0,32.48-23.136,32.48-38.432V92.072
			C496,83.24,488.832,76.072,480,76.072z"/>
	</g>
</g>
<g>
	<g>
		<path d="M175.968,355.864c-35.328,0-64.064,28.72-64.064,64.032s28.736,64.032,64.064,64.032c35.296,0,64.016-28.72,64.016-64.032
			C239.984,384.584,211.264,355.864,175.968,355.864z M175.968,451.928c-17.68,0-32.064-14.368-32.064-32.032
			s14.384-32.032,32.064-32.032c17.664,0,32.016,14.368,32.016,32.032S193.632,451.928,175.968,451.928z"/>
	</g>
</g>
<g>
	<g>
		<path d="M447.968,355.864c-35.312,0-64.032,28.72-64.032,64.032s28.72,64.032,64.032,64.032S512,455.192,512,419.896
			C512,384.6,483.28,355.864,447.968,355.864z M447.968,451.928c-17.664,0-32.032-14.368-32.032-32.032s14.368-32.032,32.032-32.032
			S480,402.232,480,419.896S465.632,451.928,447.968,451.928z"/>
	</g>
</g>
<g>
	<g>
		<path d="M496,76.072H96c-8.832,0-16,7.168-16,16c0,8.832,7.168,16,16,16h400c8.832,0,16-7.168,16-16
			C512,83.24,504.832,76.072,496,76.072z"/>
	</g>
</g>
<g>
	<g>
		<path d="M400,412.072H224c-8.832,0-16,7.168-16,16c0,8.832,7.168,16,16,16h176c8.832,0,16-7.168,16-16
			C416,419.24,408.832,412.072,400,412.072z"/>
	</g>
</g>
<g>
	<g>
		<path d="M215.184,305.592c-8.112-3.52-17.52,0.256-21.008,8.368l-21.696,50.432c-3.504,8.112,0.256,17.52,8.368,21.008
			c2.064,0.896,4.208,1.312,6.32,1.312c6.192,0,12.096-3.632,14.688-9.68l21.696-50.432
			C227.056,318.488,223.296,309.08,215.184,305.592z"/>
	</g>
</g>
<g>
	<g>
		<path d="M416,124.072c-8.832,0-16,7.168-16,16v128c0,8.832,7.168,16,16,16c8.832,0,16-7.168,16-16v-128
			C432,131.24,424.832,124.072,416,124.072z"/>
	</g>
</g>
<g>
	<g>
		<path d="M352,124.072c-8.832,0-16,7.168-16,16v128c0,8.832,7.168,16,16,16c8.832,0,16-7.168,16-16v-128
			C368,131.24,360.832,124.072,352,124.072z"/>
	</g>
</g>
<g>
	<g>
		<path d="M288,124.072c-8.832,0-16,7.168-16,16v128c0,8.832,7.168,16,16,16c8.832,0,16-7.168,16-16v-128
			C304,131.24,296.832,124.072,288,124.072z"/>
	</g>
</g>
<g>
	<g>
		<path d="M224,124.072c-8.832,0-16,7.168-16,16v128c0,8.832,7.168,16,16,16c8.832,0,16-7.168,16-16v-128
			C240,131.24,232.832,124.072,224,124.072z"/>
	</g>
</g>
<g>
</g>
<g>
</g>
<g>
</g>
<g>
</g>
<g>
</g>
<g>
</g>
<g>
</g>
<g>
</g>
<g>
</g>
<g>
</g>
<g>
</g>
<g>
</g>
<g>
</g>
<g>
</g>
<g>
</g>
</svg>
