<?xml version="1.0" encoding="iso-8859-1"?>
<!-- Generator: Adobe Illustrator 19.0.0, SVG Export Plug-In . SVG Version: 6.00 Build 0)  -->
<svg version="1.1" id="Layer_1" xmlns="http://www.w3.org/2000/svg" xmlns:xlink="http://www.w3.org/1999/xlink" x="0px" y="0px"
	 viewBox="0 0 459 459" style="enable-background:new 0 0 459 459;" xml:space="preserve">
<g>
	<g>
		<path d="M229.5,0C102.751,0,0,102.751,0,229.5S102.751,459,229.5,459S459,356.249,459,229.5S356.249,0,229.5,0z M314.953,348.5
			H144.047c-13.807,0-25-11.193-25-25s11.193-25,25-25h170.906c13.807,0,25,11.193,25,25S328.76,348.5,314.953,348.5z
			 M314.953,254.5H144.047c-13.807,0-25-11.193-25-25s11.193-25,25-25h170.906c13.807,0,25,11.193,25,25S328.76,254.5,314.953,254.5
			z M314.953,160.5H144.047c-13.807,0-25-11.193-25-25s11.193-25,25-25h170.906c13.807,0,25,11.193,25,25
			S328.76,160.5,314.953,160.5z"/>
	</g>
</g>
<g>
</g>
<g>
</g>
<g>
</g>
<g>
</g>
<g>
</g>
<g>
</g>
<g>
</g>
<g>
</g>
<g>
</g>
<g>
</g>
<g>
</g>
<g>
</g>
<g>
</g>
<g>
</g>
<g>
</g>
</svg>
