<?xml version="1.0" encoding="iso-8859-1"?>
<!-- Generator: Adobe Illustrator 19.0.0, SVG Export Plug-In . SVG Version: 6.00 Build 0)  -->
<svg version="1.1" id="Capa_1" xmlns="http://www.w3.org/2000/svg" xmlns:xlink="http://www.w3.org/1999/xlink" x="0px" y="0px"
	 viewBox="0 0 512 512" style="enable-background:new 0 0 512 512;" xml:space="preserve">
<g>
	<g>
		<path d="M256,0C114.844,0,0,114.844,0,256s114.844,256,256,256s256-114.844,256-256S397.156,0,256,0z M464.762,149.333H353.203
			c-10.074-53.988-27.633-97.355-49.723-123.16C373.945,40.71,432.796,87.03,464.762,149.333z M341.333,256
			c0,30.772-2.324,59.313-6.232,85.333H176.898c-3.908-26.021-6.232-54.561-6.232-85.333s2.324-59.313,6.232-85.333h158.203
			C339.009,196.688,341.333,225.228,341.333,256z M256,21.333c28.853,0,59.967,49.406,75.421,128H180.579
			C196.033,70.74,227.147,21.333,256,21.333z M208.52,26.173c-22.09,25.805-39.648,69.172-49.723,123.16H47.238
			C79.204,87.03,138.055,40.71,208.52,26.173z M21.333,256c0-30.126,5.909-58.846,16.298-85.333H155.31
			c-3.809,26.62-5.977,55.227-5.977,85.333s2.168,58.714,5.977,85.333H37.632C27.242,314.846,21.333,286.126,21.333,256z
			 M47.238,362.667h111.559c10.074,53.988,27.633,97.355,49.723,123.16C138.055,471.29,79.204,424.97,47.238,362.667z M256,490.667
			c-28.853,0-59.967-49.408-75.421-128h150.841C315.967,441.259,284.853,490.667,256,490.667z M303.48,485.827
			c22.09-25.805,39.648-69.172,49.723-123.16h111.559C432.796,424.97,373.945,471.29,303.48,485.827z M356.69,341.333
			c3.809-26.62,5.977-55.227,5.977-85.333s-2.168-58.714-5.977-85.333h117.678c10.389,26.487,16.298,55.207,16.298,85.333
			s-5.909,58.846-16.298,85.333H356.69z"/>
	</g>
</g>
<g>
</g>
<g>
</g>
<g>
</g>
<g>
</g>
<g>
</g>
<g>
</g>
<g>
</g>
<g>
</g>
<g>
</g>
<g>
</g>
<g>
</g>
<g>
</g>
<g>
</g>
<g>
</g>
<g>
</g>
</svg>
