<?xml version="1.0" encoding="iso-8859-1"?>
<!-- Generator: Adobe Illustrator 19.0.0, SVG Export Plug-In . SVG Version: 6.00 Build 0)  -->
<svg version="1.1" id="Capa_1" xmlns="http://www.w3.org/2000/svg" xmlns:xlink="http://www.w3.org/1999/xlink" x="0px" y="0px"
	 viewBox="0 0 512 512" style="enable-background:new 0 0 512 512;" xml:space="preserve">
<g>
	<g>
		<path d="M458.667,202.667c-29.406,0-53.333,23.927-53.333,53.333S381.406,309.333,352,309.333S298.667,285.406,298.667,256
			c0-12.396,12.208-32.229,25.146-53.229c18.208-29.573,38.854-63.104,38.854-96.104C362.667,47.854,314.813,0,256,0
			C114.844,0,0,114.844,0,256s114.844,256,256,256s256-114.844,256-256C512,226.594,488.073,202.667,458.667,202.667z M256,64
			c23.531,0,42.667,19.135,42.667,42.667S279.531,149.333,256,149.333s-42.667-19.135-42.667-42.667S232.469,64,256,64z M64,256
			c0-23.531,19.135-42.667,42.667-42.667s42.667,19.135,42.667,42.667s-19.135,42.667-42.667,42.667S64,279.531,64,256z
			 M149.333,405.333c-23.531,0-42.667-19.135-42.667-42.667S125.802,320,149.333,320S192,339.135,192,362.667
			S172.865,405.333,149.333,405.333z M149.333,192c-23.531,0-42.667-19.135-42.667-42.667s19.135-42.667,42.667-42.667
			S192,125.802,192,149.333S172.865,192,149.333,192z M256,448c-23.531,0-42.667-19.135-42.667-42.667s19.135-42.667,42.667-42.667
			s42.667,19.135,42.667,42.667S279.531,448,256,448z"/>
	</g>
</g>
<g>
</g>
<g>
</g>
<g>
</g>
<g>
</g>
<g>
</g>
<g>
</g>
<g>
</g>
<g>
</g>
<g>
</g>
<g>
</g>
<g>
</g>
<g>
</g>
<g>
</g>
<g>
</g>
<g>
</g>
</svg>
