<?xml version="1.0" encoding="iso-8859-1"?>
<!-- Generator: Adobe Illustrator 16.0.0, SVG Export Plug-In . SVG Version: 6.00 Build 0)  -->
<!DOCTYPE svg PUBLIC "-//W3C//DTD SVG 1.1//EN" "http://www.w3.org/Graphics/SVG/1.1/DTD/svg11.dtd">
<svg version="1.1" id="Capa_1" xmlns="http://www.w3.org/2000/svg" xmlns:xlink="http://www.w3.org/1999/xlink" x="0px" y="0px"
	 width="31.512px" height="31.512px" viewBox="0 0 31.512 31.512" style="enable-background:new 0 0 31.512 31.512;"
	 xml:space="preserve">
<g>
	<g>
		<path d="M20.611,16.909V4.726C20.611,2.12,18.477,0,15.871,0c-2.605,0-4.74,2.12-4.74,4.726v12.18
			C9,18.424,7.666,20.873,7.666,23.444c0,4.448,3.592,8.067,8.005,8.067c4.501,0,8.175-3.619,8.175-8.067
			C23.846,20.768,22.636,18.371,20.611,16.909z M15.673,29.258c-3.169,0-5.748-2.608-5.748-5.813c0-1.201,0.407-2.367,1.124-3.339
			h4.265c0.311,0,0.564-0.273,0.564-0.586c0-0.311-0.252-0.586-0.564-0.586H12.19c0.206-0.16,0.41-0.31,0.639-0.445l0.54-0.327
			V16.59h1.945c0.311,0,0.564-0.221,0.564-0.533c0-0.311-0.252-0.532-0.564-0.532h-1.945v-1.065h1.945
			c0.311,0,0.564-0.221,0.564-0.533c0-0.311-0.252-0.533-0.564-0.533h-1.945v-1.278h1.945c0.311,0,0.564-0.221,0.564-0.533
			s-0.252-0.533-0.564-0.533h-1.945V9.984h1.945c0.311,0,0.564-0.221,0.564-0.533c0-0.311-0.252-0.533-0.564-0.533h-1.945V7.641
			h1.945c0.311,0,0.564-0.221,0.564-0.533c0-0.312-0.252-0.533-0.564-0.533h-1.945v-1.85c0-1.363,1.141-2.472,2.503-2.472
			s2.504,1.109,2.504,2.472V18.16l0.534,0.327c1.71,1.013,2.682,2.819,2.682,4.956C21.591,26.649,18.932,29.258,15.673,29.258z"/>
		<path d="M12.083,22.662c-0.122,0.426-0.205,0.786-0.205,1.203c0,2.14,1.735,3.882,3.874,3.882c2.141,0,3.874-1.747,3.874-3.886
			c0-0.417-0.083-0.772-0.205-1.199H12.083z"/>
	</g>
</g>
<g>
</g>
<g>
</g>
<g>
</g>
<g>
</g>
<g>
</g>
<g>
</g>
<g>
</g>
<g>
</g>
<g>
</g>
<g>
</g>
<g>
</g>
<g>
</g>
<g>
</g>
<g>
</g>
<g>
</g>
</svg>
