<?xml version="1.0" encoding="iso-8859-1"?>
<!-- Generator: Adobe Illustrator 19.0.0, SVG Export Plug-In . SVG Version: 6.00 Build 0)  -->
<svg version="1.1" id="Layer_1" xmlns="http://www.w3.org/2000/svg" xmlns:xlink="http://www.w3.org/1999/xlink" x="0px" y="0px"
	 viewBox="0 0 512 512" style="enable-background:new 0 0 512 512;" xml:space="preserve">
<g>
	<g>
		<path d="M481.635,331.406L424.74,217.635c-7.719-15.448-22.521-26.24-39.583-28.865l-113.385-17.448h-0.01
			c-23.458-3.573-47.052,8.083-58.406,28.865l-34.859-69.725C187.184,116.771,192,101.376,192,85.333
			C192,38.281,153.719,0,106.667,0C59.615,0,21.333,38.281,21.333,85.333c0,44.674,34.626,81.029,78.388,84.632l99.299,198.598
			c2.406,4.802,0.479,8.854-0.469,10.375c-0.938,1.521-3.698,5.063-9.073,5.063h-88.927C80.396,384,64,400.396,64,420.552
			c0,5.635,1.333,11.292,3.854,16.354l7.938,15.865c1.302,2.594,3.594,4.542,6.365,5.406l150.667,47.083
			c14.292,4.469,29.135,6.74,44.115,6.74c22.844,0,45.719-5.396,66.135-15.615l100.281-50.135
			c29.188-14.583,47.313-43.927,47.313-76.563C490.667,356.479,487.542,343.24,481.635,331.406z M42.667,85.333
			c0-35.292,28.708-64,64-64c35.292,0,64,28.708,64,64c0,7.405-1.421,14.633-3.97,21.531l-20.04-40.083
			c-7.438-14.875-22.396-24.115-39.031-24.115C83.573,42.667,64,62.24,64,88.219c0,6.75,1.594,13.5,4.604,19.51l19.224,38.449
			C61.768,138.078,42.667,114.025,42.667,85.333z M433.812,427.167l-100.281,50.135c-28.927,14.479-63.448,17.281-94.344,7.604
			l-146.344-45.74l-5.906-11.792c-1.052-2.115-1.604-4.469-1.604-6.823c0-8.396,6.823-15.219,15.219-15.219h88.927
			c11.177,0,21.354-5.677,27.229-15.177c5.865-9.5,6.396-21.146,1.396-31.135L87.677,98.177c-1.531-3.063-2.344-6.51-2.344-11.885
			C85.333,74,95.333,64,107.625,64c8.5,0,16.146,4.719,19.948,12.323l76.219,152.448c3.625,7.229,15.479,7.229,19.083,0
			l8.594-17.198c6.865-13.688,22.063-21.458,37.052-19.167l113.385,17.448c10.24,1.573,19.115,8.052,23.75,17.323l56.896,113.771
			c4.438,8.875,6.781,18.813,6.781,28.74C469.333,394.188,455.719,416.219,433.812,427.167z"/>
	</g>
</g>
<g>
</g>
<g>
</g>
<g>
</g>
<g>
</g>
<g>
</g>
<g>
</g>
<g>
</g>
<g>
</g>
<g>
</g>
<g>
</g>
<g>
</g>
<g>
</g>
<g>
</g>
<g>
</g>
<g>
</g>
</svg>
